HIERARCHY
ROOT hip
{
	OFFSET 0.000000 0.000000 0.000000 
	CHANNELS 6 Xposition Yposition Zposition Xrotation Zrotation Yrotation
	JOINT abdomen
	{
		OFFSET 0.000000 3.402643 0.000000 
		CHANNELS 3 Xrotation Zrotation Yrotation
		JOINT chest
		{
			OFFSET 0.000000 8.438565 -0.680529 
			CHANNELS 3 Xrotation Zrotation Yrotation
			JOINT neck
			{
				OFFSET 0.000000 10.207942 -0.272212 
				CHANNELS 3 Xrotation Zrotation Yrotation
				JOINT head
				{
					OFFSET 0.000000 3.130431 0.000000 
					CHANNELS 3 Xrotation Zrotation Yrotation
					End Site
					{
						OFFSET 0.000000 3.130435 0.000000 
					}
				}
			}
			JOINT lCollar
			{
				OFFSET 3.470700 6.669187 -0.816635 
				CHANNELS 3 Yrotation Zrotation Xrotation
				JOINT lShldr
				{
					OFFSET 3.198488 0.000000 0.000000 
					CHANNELS 3 Zrotation Yrotation Xrotation
					JOINT lForeArm
					{
						OFFSET 10.139888 0.000000 0.000000 
						CHANNELS 3 Yrotation Zrotation Xrotation
						JOINT lHand
						{
							OFFSET 8.370511 0.000000 0.000000 
							CHANNELS 3 Zrotation Yrotation Xrotation
							End Site
							{
								OFFSET 4.083176 0.000000 0.000000 
							}
						}
					}
				}
			}
			JOINT rCollar
			{
				OFFSET -3.470700 6.669187 -0.816635 
				CHANNELS 3 Yrotation Zrotation Xrotation
				JOINT rShldr
				{
					OFFSET -3.198488 0.000000 0.000000 
					CHANNELS 3 Zrotation Yrotation Xrotation
					JOINT rForeArm
					{
						OFFSET -10.139888 0.000000 0.000000 
						CHANNELS 3 Yrotation Zrotation Xrotation
						JOINT rHand
						{
							OFFSET -8.370511 0.000000 0.000000 
							CHANNELS 3 Zrotation Yrotation Xrotation
							End Site
							{
								OFFSET -4.083176 0.000000 0.000000 
							}
						}
					}
				}
			}
		}
	}
	JOINT lThigh
	{
		OFFSET 5.308129 -1.633274 1.361059 
		CHANNELS 3 Xrotation Zrotation Yrotation
		JOINT lShin
		{
			OFFSET -2.041588 -20.007561 0.000000 
			CHANNELS 3 Xrotation Zrotation Yrotation
			JOINT lFoot
			{
				OFFSET 0.000000 -19.190928 -1.224953 
				CHANNELS 3 Xrotation Yrotation Zrotation
				End Site
				{
					OFFSET 0.000000 -2.449906 4.627600 
				}
			}
		}
	}
	JOINT rThigh
	{
		OFFSET -5.308129 -1.633274 1.361059 
		CHANNELS 3 Xrotation Zrotation Yrotation
		JOINT rShin
		{
			OFFSET 2.041588 -20.007561 0.000000 
			CHANNELS 3 Xrotation Zrotation Yrotation
			JOINT rFoot
			{
				OFFSET 0.000000 -19.190928 -1.224953 
				CHANNELS 3 Xrotation Yrotation Zrotation
				End Site
				{
					OFFSET 0.000000 -2.449906 4.627600 
				}
			}
		}
	}
}
MOTION
Frames: 8
Frame Time: 0.016667
0.661443 54.920334 -60.653862 -6.152344 5.185547 -10.106539 0.000000 0.000000 0.000000 12.392579 -2.910156 9.530754 4.433594 -7.988281 -26.192764 9.970703 -0.683594 34.687382 11.728516 -25.000000 12.660378 -22.802734 20.957031 21.611326 -73.085938 -10.000001 -153.650650 178.007813 -158.466797 -0.706711 4.775391 24.990234 13.198998 16.279295 0.253906 21.083996 68.554688 -1.035156 140.185730 -16.777344 33.203129 -168.910660 -8.419428 -2.361329 0.180087 11.857218 -0.800091 1.517748 1.097728 29.735649 -2.527947 14.479238 -15.515982 -15.355887 21.448574 -1.525090 12.784282 -17.150331 -10.960406 8.761874 
0.753621 54.931820 -62.095203 -6.123047 4.951172 -11.357421 0.000000 0.000000 0.000000 13.339845 -2.460938 10.419504 4.521484 -7.539063 -26.104795 9.179688 -1.162109 34.267380 12.910155 -25.000000 13.378907 -25.673828 22.001951 20.052490 -72.812500 -9.775391 -151.767578 179.238281 -158.818359 -2.464468 4.970703 24.990232 14.160156 13.496094 2.978516 20.185545 68.222656 -0.869141 142.470703 159.843765 146.542969 7.485852 -8.871701 -1.679208 0.484594 10.078465 -1.102066 2.709294 2.493090 29.148537 -2.866435 17.833597 -13.853894 -14.701929 12.119437 -1.650069 11.859110 -17.619593 -13.235044 8.521649 
0.780374 54.886295 -63.573101 -5.976563 4.580078 -12.557814 0.000000 0.000000 0.000000 14.189453 -2.031250 11.347311 4.707031 -7.080079 -26.055891 8.554688 -1.582031 33.847656 13.916016 -25.000000 13.984375 -28.867188 22.441406 18.646309 -72.822266 -9.482422 -150.205078 -179.414063 -159.355469 -3.411646 5.312500 24.990232 14.995873 10.478515 5.488281 19.951176 67.929688 -0.439453 143.896484 156.757828 147.226563 5.190834 -9.648476 -0.712537 0.872252 9.120451 -1.367178 3.646710 3.694846 27.812651 -3.860881 16.264271 -12.956177 -12.850821 11.437620 -2.392088 11.230208 -18.822805 -15.432405 7.966703 
0.761671 54.793850 -65.002403 -5.947266 4.658203 -13.612487 0.000000 0.000000 0.000000 14.814453 -2.011719 11.825830 5.273438 -7.060438 -25.743725 8.359375 -1.181641 33.046875 14.609373 -25.000000 14.580079 -30.546877 23.203125 17.910156 -73.291016 -9.042968 -149.716797 -177.919922 -160.830078 -3.085938 5.429687 24.990232 15.664063 8.457032 7.724610 20.011080 67.792976 -0.224609 145.976608 153.652344 148.330078 1.958253 -10.244917 -0.088212 1.184877 8.143690 -1.660164 4.539097 4.959845 25.924196 -5.197001 12.254213 -13.065938 -11.291905 15.855938 -2.901647 11.335549 -20.918850 -16.678747 7.058177 
0.779598 54.797634 -66.302399 -6.220703 4.628906 -14.169134 0.000000 0.000000 0.000000 15.712888 -1.972656 11.630860 5.771485 -6.884766 -25.245310 8.173828 -0.742188 32.060421 14.980468 -25.000000 15.498046 -30.849607 23.320313 17.874962 -73.564453 -8.623047 -150.975098 -176.650391 -162.968750 -1.379813 4.589844 24.990232 16.708986 6.933594 10.058594 19.708736 68.037109 -0.166016 149.433594 151.416016 150.673828 -2.670998 -9.514272 0.760828 1.544749 5.821417 -2.271325 4.944216 6.344672 21.634754 -6.957838 9.861861 -13.154056 -10.489140 18.563902 -3.049269 11.480612 -21.846975 -16.074102 6.458126 
0.841599 54.889099 -67.462051 -5.917969 4.277419 -14.227557 0.000000 0.000000 0.000000 16.220703 -1.562500 11.025125 5.732421 -6.435546 -24.609375 8.105469 -0.546875 31.025431 14.707031 -25.000000 15.922096 -30.830076 22.832031 18.558479 -73.603516 -8.457032 -153.533722 -176.708984 -164.101563 2.929688 4.003906 24.990232 17.128906 7.060547 11.806641 18.820358 68.906250 -0.341797 154.414063 148.681641 152.226563 -6.763028 -8.872625 1.884015 1.692761 3.639361 -2.605844 5.037971 6.671202 13.935748 -8.077073 8.034572 -12.858636 -9.967703 19.573154 -2.773567 11.365582 -21.615604 -15.107719 6.095066 
0.879799 54.971600 -68.451378 -5.507813 4.238281 -14.325451 0.000000 0.000000 0.000000 16.259768 -1.386719 10.585700 5.771485 -6.337891 -24.112408 8.193359 -0.253906 30.107422 14.248047 -25.000000 15.961157 -30.488285 22.402344 19.257813 -73.994141 -8.398438 -156.064453 -176.640625 -163.886719 7.001954 4.101563 24.990232 16.972656 8.554688 12.099608 18.369141 70.498047 -0.947266 159.882980 -33.320313 26.318359 169.814453 -10.074576 2.752874 1.805529 5.523771 -2.772881 4.770290 6.142008 6.375147 -9.146391 5.914420 -12.631189 -9.353691 20.753189 -2.733960 11.113412 -21.248108 -14.804597 5.809640 
0.899244 55.114334 -69.230049 -5.644531 4.560547 -14.550005 0.000000 0.000000 0.000000 16.386721 -1.650391 10.273156 6.152343 -6.582031 -23.710938 8.447267 0.361328 29.179726 14.033203 -25.000000 16.244362 -29.277344 21.914063 19.974350 -74.531250 -8.320313 -158.670456 3.417969 -17.177734 -170.022415 3.603516 24.990234 17.236328 9.199218 11.982421 19.199217 72.519531 -1.582031 164.775665 -33.339844 23.027342 164.052734 -11.193305 3.151860 2.000484 9.059730 -2.784258 4.273449 5.086536 1.372775 -9.676875 4.813477 -12.839985 -9.198459 21.187263 -2.774406 11.219646 -20.710064 -14.551612 5.601278 
